<svg width="52" height="52" viewBox="0 0 52 52" fill="none" xmlns="http://www.w3.org/2000/svg">
<rect width="52" height="52" rx="2" fill="#07C39A"/>
<path d="M36 14H16C15.4696 14 14.9609 14.2107 14.5858 14.5858C14.2107 14.9609 14 15.4696 14 16V36C14 36.5304 14.2107 37.0391 14.5858 37.4142C14.9609 37.7893 15.4696 38 16 38H36C36.5304 38 37.0391 37.7893 37.4142 37.4142C37.7893 37.0391 38 36.5304 38 36V16C38 15.4696 37.7893 14.9609 37.4142 14.5858C37.0391 14.2107 36.5304 14 36 14ZM16 16H36V25.6725L32.9137 22.585C32.5387 22.2102 32.0302 21.9997 31.5 21.9997C30.9698 21.9997 30.4613 22.2102 30.0863 22.585L16.6712 36H16V16ZM20 22C20 21.6044 20.1173 21.2178 20.3371 20.8889C20.5568 20.56 20.8692 20.3036 21.2346 20.1522C21.6001 20.0009 22.0022 19.9613 22.3902 20.0384C22.7781 20.1156 23.1345 20.3061 23.4142 20.5858C23.6939 20.8655 23.8844 21.2219 23.9616 21.6098C24.0387 21.9978 23.9991 22.3999 23.8478 22.7654C23.6964 23.1308 23.44 23.4432 23.1111 23.6629C22.7822 23.8827 22.3956 24 22 24C21.4696 24 20.9609 23.7893 20.5858 23.4142C20.2107 23.0391 20 22.5304 20 22Z" fill="white"/>
</svg>
