<svg width="53" height="52" viewBox="0 0 53 52" fill="none" xmlns="http://www.w3.org/2000/svg">
<rect x="0.333496" width="52" height="52" rx="2" fill="#07C39A"/>
<path d="M18.3485 28.475C18.3519 28.5427 18.3415 28.6104 18.3179 28.674C18.2943 28.7376 18.258 28.7957 18.2112 28.8448C18.1644 28.8939 18.1082 28.933 18.0458 28.9597C17.9835 28.9864 17.9163 29.0001 17.8485 29H12.3335C12.1078 29.0003 11.8886 28.9243 11.7116 28.7843C11.5346 28.6443 11.4101 28.4485 11.3585 28.2288C11.3264 28.0784 11.3278 27.9227 11.3628 27.773C11.3979 27.6232 11.4655 27.4831 11.561 27.3625C12.4433 26.1925 13.6139 25.2712 14.9585 24.6888C14.3682 24.1505 13.9154 23.4786 13.6381 22.7294C13.3608 21.9802 13.2671 21.1755 13.3648 20.3826C13.4625 19.5897 13.7487 18.8317 14.1996 18.1722C14.6504 17.5127 15.2527 16.9708 15.956 16.592C16.6594 16.2131 17.4433 16.0083 18.242 15.9947C19.0408 15.9811 19.8312 16.159 20.547 16.5137C21.2629 16.8684 21.8833 17.3894 22.3564 18.0332C22.8294 18.6769 23.1414 19.4247 23.266 20.2137C23.2821 20.3199 23.2631 20.4283 23.2119 20.5226C23.1607 20.617 23.08 20.692 22.9823 20.7362C21.5952 21.3775 20.4206 22.4021 19.5969 23.6891C18.7732 24.9761 18.3348 26.4719 18.3335 28C18.3335 28.16 18.3335 28.3175 18.3485 28.475ZM41.0985 27.3612C40.2183 26.1926 39.0504 25.2718 37.7085 24.6888C38.2989 24.1505 38.7516 23.4786 39.0289 22.7294C39.3062 21.9802 39.3999 21.1755 39.3022 20.3826C39.2046 19.5897 38.9183 18.8317 38.4675 18.1722C38.0166 17.5127 37.4143 16.9708 36.711 16.592C36.0076 16.2131 35.2238 16.0083 34.425 15.9947C33.6262 15.9811 32.8358 16.159 32.12 16.5137C31.4042 16.8684 30.7837 17.3894 30.3107 18.0332C29.8376 18.6769 29.5257 19.4247 29.401 20.2137C29.3849 20.3199 29.4039 20.4283 29.4551 20.5226C29.5064 20.617 29.587 20.692 29.6848 20.7362C31.0718 21.3775 32.2464 22.4021 33.0701 23.6891C33.8938 24.9761 34.3322 26.4719 34.3335 28C34.3335 28.16 34.3335 28.3175 34.3185 28.475C34.3151 28.5427 34.3255 28.6104 34.3491 28.674C34.3728 28.7376 34.409 28.7957 34.4558 28.8448C34.5026 28.8939 34.5589 28.933 34.6212 28.9597C34.6836 28.9864 34.7507 29.0001 34.8185 29H40.3335C40.5592 29.0003 40.7784 28.9243 40.9554 28.7843C41.1324 28.6443 41.2569 28.4485 41.3085 28.2288C41.3409 28.0781 41.3394 27.9221 41.3041 27.7721C41.2689 27.6221 41.2008 27.4818 41.1048 27.3612H41.0985ZM29.9735 32.7588C30.9692 31.9962 31.7009 30.9408 32.0658 29.7409C32.4307 28.5411 32.4104 27.257 32.0079 26.0692C31.6053 24.8815 30.8406 23.8497 29.8214 23.119C28.8021 22.3882 27.5795 21.9952 26.3254 21.9952C25.0712 21.9952 23.8486 22.3882 22.8294 23.119C21.8101 23.8497 21.0455 24.8815 20.6429 26.0692C20.2403 27.257 20.2201 28.5411 20.585 29.7409C20.9499 30.9408 21.6816 31.9962 22.6773 32.7588C20.9104 33.5243 19.4351 34.8354 18.4673 36.5C18.3795 36.652 18.3333 36.8245 18.3333 37.0001C18.3333 37.1756 18.3795 37.3481 18.4673 37.5001C18.5551 37.6521 18.6814 37.7784 18.8334 37.8661C18.9855 37.9539 19.158 38 19.3335 38H33.3335C33.5091 38 33.6815 37.9539 33.8336 37.8661C33.9856 37.7784 34.1119 37.6521 34.1997 37.5001C34.2875 37.3481 34.3337 37.1756 34.3337 37.0001C34.3337 36.8245 34.2875 36.652 34.1998 36.5C33.2298 34.8343 31.7518 33.5231 29.9823 32.7588H29.9735Z" fill="white"/>
</svg>
