<svg width="53" height="52" viewBox="0 0 53 52" fill="none" xmlns="http://www.w3.org/2000/svg">
<rect x="0.666748" width="52" height="52" rx="2" fill="#07C39A"/>
<path d="M28.5892 12.2312C28.466 12.1288 28.3199 12.0574 28.1632 12.0232C28.0066 11.989 27.8441 11.993 27.6893 12.0348C27.5345 12.0766 27.3921 12.1549 27.2739 12.2633C27.1558 12.3717 27.0654 12.5069 27.0105 12.6575L24.2605 20.2087L21.2405 17.2825C21.1391 17.1841 21.018 17.1084 20.8851 17.0602C20.7523 17.0121 20.6108 16.9926 20.4699 17.0031C20.329 17.0136 20.1919 17.0539 20.0677 17.1212C19.9435 17.1885 19.835 17.2814 19.7492 17.3938C17.0417 20.9412 15.6667 24.51 15.6667 28C15.6667 30.9174 16.8257 33.7153 18.8886 35.7782C20.9515 37.8411 23.7494 39 26.6667 39C29.5841 39 32.382 37.8411 34.4449 35.7782C36.5078 33.7153 37.6667 30.9174 37.6667 28C37.6667 20.5688 31.318 14.5 28.5892 12.2312ZM33.653 29.1675C33.3937 30.6159 32.6969 31.95 31.6563 32.9904C30.6157 34.0307 29.2814 34.7273 27.833 34.9862C27.7781 34.9957 27.7225 35.0003 27.6667 35C27.4159 34.9999 27.1743 34.9056 26.9897 34.7357C26.8052 34.5658 26.6912 34.3328 26.6704 34.0828C26.6497 33.8328 26.7236 33.5842 26.8776 33.3861C27.0316 33.1881 27.2544 33.0552 27.5017 33.0138C29.573 32.665 31.3305 30.9075 31.6817 28.8325C31.7262 28.5709 31.8727 28.3377 32.0891 28.1842C32.3054 28.0306 32.5739 27.9693 32.8355 28.0138C33.0971 28.0582 33.3303 28.2047 33.4838 28.4211C33.6374 28.6374 33.6987 28.9059 33.6542 29.1675H33.653Z" fill="white"/>
</svg>
