<svg width="32" height="32" viewBox="0 0 32 32" fill="none" xmlns="http://www.w3.org/2000/svg">
<path fill-rule="evenodd" clip-rule="evenodd" d="M14.6822 12.204C14.7652 12.1344 14.852 12.0693 14.9434 12.0103C15.3264 11.762 15.7707 11.6317 16.2301 11.6317C16.7963 11.6317 17.3364 11.8299 17.7606 12.189V3.2177C17.7606 3.09799 17.6649 3 17.5429 3C17.0313 3 16.5302 3.18095 16.1365 3.50945C15.7401 3.8385 15.4723 4.29784 15.381 4.80283L14.1488 11.483C14.136 11.5504 14.1555 11.6178 14.2012 11.6679L14.6822 12.2035V12.204ZM16.2304 12.0669C15.8557 12.0669 15.4921 12.1738 15.1787 12.376C14.8847 12.5653 14.6497 12.8308 14.4949 13.1404C14.3602 13.4127 14.29 13.7044 14.29 14.0067C14.29 14.7122 14.6753 15.363 15.2917 15.7049C15.5745 15.8619 15.9013 15.9465 16.2304 15.9465C16.3546 15.9465 16.4743 15.9354 16.5895 15.9115C16.594 15.9115 16.5984 15.9115 16.6023 15.9092C17.5104 15.7327 18.1702 14.9315 18.1702 14.0062C18.1702 13.882 18.1613 13.7668 18.1396 13.6576C18.0783 13.3247 17.9308 13.009 17.7109 12.7495C17.3406 12.3142 16.8005 12.0658 16.2304 12.0658V12.0669ZM15.0324 16.7439L15.3047 16.1949C15.2284 16.1621 15.1543 16.1275 15.0803 16.0858C14.3247 15.6654 13.8543 14.8687 13.8543 14.0062C13.8543 13.8103 13.8782 13.6165 13.9261 13.4294L6.10953 17.9699C6.05497 18.0005 6.01822 18.0529 6.00486 18.1113C5.99205 18.1704 6.00486 18.2333 6.03993 18.2834C6.4731 18.9042 7.18522 19.2761 7.94521 19.2761C8.21748 19.2761 8.48974 19.226 8.75087 19.1302L14.9127 16.8525C14.965 16.833 15.0084 16.7934 15.0324 16.7433V16.7439ZM19.3886 13.53L24.4163 17.6891L24.4169 17.6886C25.2659 18.3895 25.5143 19.6067 25.0048 20.5844C24.9787 20.6367 24.9308 20.6762 24.874 20.6935C24.8517 20.7002 24.8322 20.7024 24.8127 20.7024C24.7732 20.7024 24.7365 20.6913 24.7036 20.674L17.4811 16.4848C17.4764 16.4828 17.4725 16.4799 17.4685 16.477C17.4649 16.4745 17.4614 16.4719 17.4572 16.4698L17.0502 16.2348C17.9711 15.8974 18.6047 15.0133 18.6047 14.0072C18.6047 13.8479 18.5919 13.7043 18.568 13.5801L18.5678 13.5791L18.5678 13.5791C18.5611 13.5444 18.5551 13.5124 18.5462 13.4799H19.2517C19.3018 13.4799 19.3497 13.4972 19.3886 13.53ZM19.0313 29.564H21.2372L21.2367 29.5646C21.3569 29.5646 21.4544 29.662 21.4544 29.7823C21.4544 29.9025 21.3569 30 21.2367 30H10.9842C10.864 30 10.7665 29.9025 10.7665 29.7823C10.7665 29.662 10.864 29.5646 10.9842 29.5646H13.4279L14.5442 17.4514L15.0648 17.2599C15.2235 17.2009 15.3521 17.0856 15.4217 16.9375L15.7246 16.3256C15.89 16.3651 16.0598 16.3824 16.2296 16.3824C16.2947 16.3824 16.3604 16.3802 16.4234 16.3735L17.2312 16.8417L17.2574 16.859L17.2747 16.8679L17.8932 17.227L19.0313 29.564Z" fill="white"/>
</svg>
