<svg width="32" height="32" viewBox="0 0 32 32" fill="none" xmlns="http://www.w3.org/2000/svg">
<path fill-rule="evenodd" clip-rule="evenodd" d="M16.1846 12.4907C15.4546 13.4854 15.0688 14.665 15.0688 15.9033V15.9038C15.0688 19.0884 17.6597 21.6797 20.8447 21.6797C21.9648 21.6797 23.0112 21.3589 23.8975 20.8047C23.5054 25.3892 19.6494 29 14.9653 29C10.022 29 6 24.978 6 20.0347C6 18.1104 6.60059 16.2769 7.73682 14.73L14.9653 4L18.4351 9.1499L16.1846 12.4907ZM17.3759 13.3477L17.414 13.2959H17.4135L17.4208 13.2817L20.8441 8.19971L24.2675 13.2817L24.2748 13.2969L24.3124 13.3477C24.8617 14.0913 25.1522 14.9756 25.1522 15.9038C25.1522 18.2793 23.2196 20.2119 20.8441 20.2119C18.4687 20.2119 16.536 18.2793 16.536 15.9038C16.536 14.9756 16.8266 14.0918 17.3759 13.3477Z" fill="white"/>
</svg>
