<svg width="52" height="52" viewBox="0 0 52 52" fill="none" xmlns="http://www.w3.org/2000/svg">
<rect width="52" height="52" rx="2" fill="#07C39A"/>
<path d="M35 14H30.4675C29.9056 13.3709 29.2172 12.8676 28.4473 12.5229C27.6775 12.1783 26.8435 12.0002 26 12.0002C25.1565 12.0002 24.3225 12.1783 23.5527 12.5229C22.7828 12.8676 22.0944 13.3709 21.5325 14H17C16.4696 14 15.9609 14.2107 15.5858 14.5858C15.2107 14.9609 15 15.4696 15 16V37C15 37.5304 15.2107 38.0391 15.5858 38.4142C15.9609 38.7893 16.4696 39 17 39H35C35.5304 39 36.0391 38.7893 36.4142 38.4142C36.7893 38.0391 37 37.5304 37 37V16C37 15.4696 36.7893 14.9609 36.4142 14.5858C36.0391 14.2107 35.5304 14 35 14ZM26 14C27.0609 14 28.0783 14.4214 28.8284 15.1716C29.5786 15.9217 30 16.9391 30 18H22C22 16.9391 22.4214 15.9217 23.1716 15.1716C23.9217 14.4214 24.9391 14 26 14ZM30 30H22C21.7348 30 21.4804 29.8946 21.2929 29.7071C21.1054 29.5196 21 29.2652 21 29C21 28.7348 21.1054 28.4804 21.2929 28.2929C21.4804 28.1054 21.7348 28 22 28H30C30.2652 28 30.5196 28.1054 30.7071 28.2929C30.8946 28.4804 31 28.7348 31 29C31 29.2652 30.8946 29.5196 30.7071 29.7071C30.5196 29.8946 30.2652 30 30 30ZM30 26H22C21.7348 26 21.4804 25.8946 21.2929 25.7071C21.1054 25.5196 21 25.2652 21 25C21 24.7348 21.1054 24.4804 21.2929 24.2929C21.4804 24.1054 21.7348 24 22 24H30C30.2652 24 30.5196 24.1054 30.7071 24.2929C30.8946 24.4804 31 24.7348 31 25C31 25.2652 30.8946 25.5196 30.7071 25.7071C30.5196 25.8946 30.2652 26 30 26Z" fill="white"/>
</svg>
