<svg width="32" height="32" viewBox="0 0 32 32" fill="none" xmlns="http://www.w3.org/2000/svg">
<path fill-rule="evenodd" clip-rule="evenodd" d="M9.64611 22.7305C9.62226 22.7506 9.59842 22.7707 9.57504 22.7912V22.7907C6.80601 20.8147 5 17.5697 5 13.9025C5 7.88154 9.86666 3 15.8711 3C21.8756 3 26.7428 7.88154 26.7422 13.903C26.7422 17.5708 24.9362 20.8152 22.1666 22.7912C22.1367 22.7645 22.1052 22.7382 22.0742 22.7124L22.0599 22.7004C22.0179 22.6659 21.976 22.6313 21.9329 22.5984C23.2444 21.143 23.9594 19.2923 23.9594 17.3264C23.9594 12.9346 20.3304 9.36193 15.8711 9.36193C11.4119 9.36193 7.78338 12.9346 7.78338 17.3264C7.78338 19.2918 8.49781 21.143 9.80876 22.5984C9.76627 22.6313 9.72377 22.6653 9.68181 22.7004L9.64611 22.7305ZM21.4798 22.2674L21.4646 22.257H21.464C21.1018 22.018 20.7188 21.814 20.3199 21.6472C20.3815 21.3482 20.4123 21.0422 20.4123 20.7331C20.4123 18.2206 18.3747 16.1766 15.8707 16.1766C13.3667 16.1766 11.3297 18.2211 11.3297 20.7331C11.3297 21.0427 11.3605 21.3492 11.4221 21.6478C11.0248 21.814 10.6407 22.0185 10.279 22.2576L10.2573 22.2722C10.2392 22.2844 10.2208 22.2967 10.203 22.3096C8.99991 20.987 8.26901 19.241 8.26901 17.3261C8.26901 13.1956 11.6717 9.84708 15.8712 9.84708C20.0707 9.84708 23.474 13.1956 23.474 17.3261C23.474 19.241 22.7431 20.987 21.54 22.3091C21.5201 22.2947 21.4999 22.281 21.4799 22.2675L21.4798 22.2674ZM21.7514 23.0742C21.7004 23.0322 21.6494 22.9908 21.5968 22.9504C21.4672 22.85 21.3339 22.7539 21.1968 22.6631C20.8818 22.4548 20.5483 22.2742 20.1987 22.1239C20.0505 22.0591 19.8986 22.0007 19.7446 21.9476C19.5921 21.895 19.437 21.8482 19.2798 21.8073C18.789 21.6788 18.2753 21.6076 17.7458 21.5991C17.681 21.2331 17.3612 20.9548 16.9766 20.9548H14.7664C14.5502 20.9548 14.3552 21.0424 14.2145 21.1837C14.1035 21.2937 14.0259 21.4382 13.9978 21.5991C13.4692 21.6071 12.9556 21.6782 12.4653 21.8073C12.3081 21.8488 12.153 21.8955 12.0005 21.9481C11.8459 22.0007 11.6946 22.0596 11.5464 22.1239C11.1958 22.2742 10.8622 22.4559 10.5472 22.6641C10.4096 22.7549 10.2758 22.8506 10.1467 22.9515C10.0946 22.9919 10.0437 23.0322 9.99266 23.0747C8.56379 24.2577 7.65282 26.044 7.65282 28.0439V29H24.0912V28.0439C24.0912 26.0435 23.1802 24.2566 21.7514 23.0747V23.0742ZM11.8164 20.7339C11.8164 18.486 13.632 16.6635 15.8714 16.6635H15.8709C18.1109 16.6635 19.927 18.486 19.927 20.7339C19.927 20.9862 19.9041 21.2343 19.8595 21.4738C19.7049 21.4223 19.5488 21.375 19.391 21.3347C18.9661 21.2237 18.5294 21.1541 18.0875 21.1265C17.8703 20.7297 17.4501 20.4689 16.9757 20.4689H14.7655C14.4266 20.4689 14.1084 20.6011 13.871 20.8391C13.7844 20.9246 13.7127 21.0218 13.6543 21.1265C13.2123 21.1541 12.7762 21.2237 12.3518 21.3347C12.1941 21.3756 12.0379 21.4223 11.8833 21.4749C11.8392 21.2348 11.8164 20.9873 11.8164 20.7339Z" fill="white"/>
</svg>
