<svg width="90" height="20" viewBox="0 0 90 20" fill="none" xmlns="http://www.w3.org/2000/svg">
<line x1="4.37114e-08" y1="10.5" x2="77" y2="10.5" stroke="#353945"/>
<path d="M84.1922 10.4422L77.9422 16.6922C77.8548 16.7797 77.7434 16.8393 77.6221 16.8635C77.5008 16.8876 77.375 16.8752 77.2608 16.8279C77.1465 16.7805 77.0488 16.7004 76.9802 16.5975C76.9115 16.4946 76.8749 16.3737 76.875 16.25V3.75C76.8749 3.62632 76.9115 3.50538 76.9802 3.40251C77.0488 3.29964 77.1465 3.21946 77.2608 3.17211C77.375 3.12477 77.5008 3.11239 77.6221 3.13654C77.7434 3.1607 77.8548 3.22031 77.9422 3.30781L84.1922 9.55781C84.2503 9.61586 84.2964 9.68479 84.3279 9.76066C84.3593 9.83654 84.3755 9.91787 84.3755 10C84.3755 10.0821 84.3593 10.1635 84.3279 10.2393C84.2964 10.3152 84.2503 10.3841 84.1922 10.4422Z" fill="#353945"/>
</svg>
