<svg width="32" height="32" viewBox="0 0 32 32" fill="none" xmlns="http://www.w3.org/2000/svg">
<path fill-rule="evenodd" clip-rule="evenodd" d="M16.1649 11.9063C16.4763 11.9063 16.7286 11.654 16.7286 11.3426V6.69141C16.7286 6.37995 16.4763 6.12769 16.1649 6.12769C15.8534 6.12769 15.6011 6.37995 15.6011 6.69141V11.3426C15.6011 11.654 15.8534 11.9063 16.1649 11.9063ZM24.7297 21.9319H21.5526C21.8782 21.2005 22.0595 20.3911 22.0595 19.5385C22.0595 16.2825 19.4208 13.6438 16.1648 13.6438C12.9089 13.6438 10.2702 16.2825 10.2702 19.5385C10.2702 20.3911 10.4515 21.2005 10.7771 21.9319H7.60003C7.28857 21.9319 7.0363 22.1842 7.0363 22.4957C7.0363 22.8071 7.28857 23.0594 7.60003 23.0594H24.7297C25.0411 23.0594 25.2934 22.8071 25.2934 22.4957C25.2934 22.1842 25.0411 21.9319 24.7297 21.9319ZM12.2528 12.9103C12.0584 12.9103 11.8686 12.8093 11.7643 12.6284L9.43845 8.60018C9.28249 8.33053 9.37503 7.98619 9.64468 7.83023C9.91433 7.67426 10.2591 7.76681 10.4146 8.03645L12.7405 12.0647C12.8964 12.3344 12.8039 12.6792 12.5342 12.8347C12.4454 12.8859 12.3487 12.9103 12.2528 12.9103ZM5.056 13.335L9.08427 15.6608C9.17305 15.712 9.26982 15.7365 9.36566 15.7365C9.56061 15.7365 9.74993 15.6355 9.85422 15.4546C10.0097 15.185 9.91764 14.8401 9.64799 14.6847L5.61972 12.3588C5.35007 12.2033 5.00526 12.2954 4.84977 12.5651C4.69427 12.8347 4.78635 13.1795 5.056 13.335ZM8.27875 18.4989C8.5902 18.4989 8.84247 18.7511 8.84247 19.0626C8.84247 19.3741 8.5902 19.6263 8.27875 19.6263H3.62757C3.31611 19.6263 3.06384 19.3741 3.06384 19.0626C3.06384 18.7511 3.31611 18.4989 3.62757 18.4989H8.27875ZM28.5352 18.6652H23.884C23.5726 18.6652 23.3203 18.9175 23.3203 19.2289C23.3203 19.5404 23.5726 19.7926 23.884 19.7926H28.5352C28.8466 19.7926 29.0989 19.5404 29.0989 19.2289C29.0989 18.9175 28.8466 18.6652 28.5352 18.6652ZM22.8813 15.8795C22.6868 15.8795 22.497 15.7785 22.3927 15.5976C22.2368 15.328 22.3293 14.9831 22.599 14.8277L26.6272 12.5023C26.8969 12.3463 27.2412 12.4389 27.3972 12.7085C27.5532 12.9782 27.4606 13.323 27.191 13.4785L23.1627 15.8038C23.0739 15.855 22.9771 15.8795 22.8813 15.8795ZM19.7734 12.9175C19.8622 12.9687 19.9589 12.9931 20.0548 12.9931C20.2497 12.9931 20.439 12.8921 20.5433 12.7112L22.8692 8.68298C23.0247 8.41333 22.9326 8.06852 22.6629 7.91303C22.3933 7.75753 22.0485 7.84961 21.893 8.11925L19.5672 12.1475C19.4117 12.4172 19.5037 12.762 19.7734 12.9175ZM10.7082 24.745H21.6219C21.9334 24.745 22.1856 24.9972 22.1856 25.3087C22.1856 25.6202 21.9334 25.8724 21.6219 25.8724H10.7082C10.3968 25.8724 10.1445 25.6202 10.1445 25.3087C10.1445 24.9972 10.3968 24.745 10.7082 24.745Z" fill="white"/>
</svg>
