<svg width="32" height="32" viewBox="0 0 32 32" fill="none" xmlns="http://www.w3.org/2000/svg">
<path fill-rule="evenodd" clip-rule="evenodd" d="M27.972 13.2375C27.7432 12.5287 27.4098 11.8665 26.9885 11.2709C26.4878 10.5616 26.2561 9.69299 26.3326 8.82785C26.3458 8.67724 26.3527 8.52491 26.3533 8.37085C26.363 5.43283 23.9711 3.01734 21.0325 3.0001C18.0617 2.98228 15.6474 5.3857 15.6474 8.35303C15.6474 8.50939 15.6543 8.66402 15.6669 8.81693C15.7422 9.69012 15.5071 10.5662 15.003 11.283C14.5926 11.867 14.2655 12.5137 14.0384 13.2059C13.8027 13.9238 13.6757 14.6912 13.6751 15.488C13.6745 17.1964 14.2522 18.764 15.2237 20.0074C16.4683 21.5997 18.3589 22.6591 20.5117 22.7994V21.0145L17.1213 17.6241C16.9304 17.4332 16.9304 17.124 17.1213 16.9331C17.3121 16.7423 17.6214 16.7423 17.8122 16.9331L20.5117 19.6326V15.6616L18.5297 13.6795C18.3388 13.4887 18.3388 13.1794 18.5297 12.9886C18.7205 12.7977 19.0298 12.7977 19.2206 12.9886L20.5117 14.2791V7.85235C20.5117 7.58217 20.7302 7.36373 21.0003 7.36373C21.2705 7.36373 21.4889 7.58217 21.4889 7.85235V11.8849L23.5147 9.85855C23.7055 9.6677 24.0154 9.6677 24.2062 9.85855C24.3971 10.0494 24.3971 10.3587 24.2062 10.5495L21.4889 13.2668V17.2378L24.1878 14.5383C24.3787 14.3475 24.6879 14.3475 24.8788 14.5383C25.0696 14.7292 25.0696 15.0385 24.8788 15.2293L21.4889 18.6197V22.7994C23.6417 22.6574 25.5404 21.5865 26.7867 19.9827C27.7513 18.7422 28.3255 17.1832 28.3255 15.4903C28.3255 14.7045 28.202 13.9474 27.972 13.2375ZM8.8289 22.5512L5.9248 19.6471C5.73395 19.4562 5.73395 19.147 5.9248 18.9561C6.11507 18.7653 6.42491 18.7653 6.61576 18.9561L8.8289 21.1693V17.9346L7.13944 16.2452C6.94859 16.0543 6.94859 15.7451 7.13944 15.5542C7.33029 15.3634 7.63955 15.3634 7.8304 15.5542L8.8289 16.5527V11.1716C8.8289 10.902 9.04734 10.683 9.31752 10.683C9.5877 10.683 9.80614 10.902 9.80614 11.1716V14.4873L11.4387 12.8542C11.6295 12.6639 11.9388 12.6639 12.1297 12.8542C12.3205 13.045 12.3205 13.3549 12.1297 13.5457L9.80614 15.8692V19.1039L12.0193 16.8907C12.2101 16.6999 12.5194 16.6999 12.7102 16.8907C12.9011 17.0816 12.9011 17.3908 12.7102 17.5817L9.80614 20.4858V24.0579C12.044 23.8871 13.9553 22.55 14.9343 20.6536C13.7093 19.2177 13.0414 17.4058 13.0419 15.4875C13.0425 14.2033 13.346 12.9594 13.9283 11.8373C13.9324 11.7654 13.9341 11.6924 13.9341 11.6194C13.9427 9.08493 11.8802 7.00228 9.34569 6.98676C6.78304 6.97181 4.70096 9.04469 4.70096 11.6039C4.70096 11.7384 4.70671 11.8718 4.7182 12.0034C4.78316 12.757 4.58024 13.5124 4.14566 14.1309C3.42423 15.157 3.00058 16.4079 3 17.757C2.99943 21.0951 5.55575 23.8101 8.8289 24.0584V22.5512ZM21.6889 27.6095C22.984 27.6129 24.2889 27.6169 25.611 27.6215V27.6204C25.9921 27.6215 26.2997 27.9314 26.2985 28.3125C26.2968 28.693 25.9887 29 25.6087 29H25.6058C24.0969 28.9943 22.6092 28.9902 21.1336 28.9868C21.0939 28.9948 21.0531 28.9994 21.0117 28.9994C21.0071 28.9994 21.0031 29 20.9985 29H20.9967H20.995C17.1746 28.9816 13.3048 28.977 9.49816 28.9759C9.44068 28.992 9.37975 29 9.31709 29C9.25443 29 9.1935 28.992 9.13601 28.9759H9.13544H5.99565C5.61453 28.9759 5.30584 28.6672 5.30584 28.2861C5.30584 27.9049 5.61453 27.5963 5.99565 27.5963H8.62728V25.1549C8.62728 24.8554 8.81755 24.6013 9.0837 24.5059C9.15671 24.4795 9.23489 24.4651 9.31709 24.4651C9.39929 24.4651 9.47747 24.4795 9.55047 24.5059C9.81663 24.6013 10.0069 24.8554 10.0069 25.1549V27.5968C13.4606 27.5974 16.8562 27.5997 20.3092 27.6066V24.276C20.3092 23.8948 20.6179 23.5861 20.999 23.5861C21.3802 23.5861 21.6889 23.8948 21.6889 24.276V27.6095Z" fill="white"/>
</svg>
