<svg width="24" height="25" viewBox="0 0 24 25" fill="none" xmlns="http://www.w3.org/2000/svg">
<g id="Group 40624">
<path id="Vector" d="M12 24.3105C18.6274 24.3105 24 18.938 24 12.3105C24 5.68313 18.6274 0.310547 12 0.310547C5.37258 0.310547 0 5.68313 0 12.3105C0 18.938 5.37258 24.3105 12 24.3105Z" fill="#B1B5C4"/>
<g id="Group">
<path id="Vector_2" d="M7.39997 14.4388C6.53224 14.4325 5.65851 14.4388 4.72928 14.4388C4.82777 14.3033 4.88927 14.2233 4.95702 14.1433C5.76325 13.128 6.56924 12.1063 7.37547 11.0788C7.60922 10.7773 7.84321 10.4758 7.99071 10.1251C8.15696 9.71886 7.97846 9.33136 7.55997 9.18986C7.36922 9.14061 7.17848 9.11611 6.98148 9.12212C5.88625 9.11587 4.78453 9.11587 3.6893 9.12212C3.53555 9.12212 3.38156 9.14061 3.23405 9.17761C3.0003 9.2331 2.81556 9.42385 2.76031 9.6576C2.68031 10.0021 2.8958 10.3528 3.24654 10.4328C3.39429 10.4636 3.54804 10.4821 3.70203 10.4821C4.36652 10.4883 5.03726 10.4821 5.70199 10.4883C5.77574 10.4946 5.86199 10.4453 5.92349 10.5498C5.86799 10.6176 5.81274 10.6913 5.75724 10.7653C4.80351 11.9715 3.84953 13.1838 2.90205 14.3898C2.6683 14.6913 2.54506 15.0235 2.71754 15.3927C2.89003 15.762 3.24054 15.8357 3.59753 15.8542C3.88677 15.8727 4.16977 15.8605 4.45901 15.8605C5.45599 15.8605 6.44672 15.8667 7.44346 15.8542C7.97269 15.848 8.25569 15.522 8.20044 15.0358C8.15119 14.648 7.88669 14.445 7.40045 14.4388H7.39997Z" fill="#141416"/>
<path id="Vector_3" d="M21.3622 13.2205C21.3144 11.7265 20.2336 10.6908 18.7338 10.6776C18.7066 10.6774 18.6793 10.6776 18.6519 10.6776C18.6432 10.6776 18.6343 10.6778 18.6257 10.6781C18.6168 10.6781 18.6079 10.6786 18.5993 10.6788C17.4894 10.711 16.6262 11.3865 16.2865 12.3914C16.2812 12.4073 16.2759 12.4234 16.2707 12.4395C16.2642 12.4601 16.2577 12.4808 16.2517 12.5017C16.2457 12.5226 16.2397 12.5435 16.2339 12.5649C16.231 12.5755 16.2281 12.586 16.2255 12.5966C16.22 12.618 16.2149 12.6394 16.2099 12.6607C16.2048 12.6824 16.2 12.704 16.1955 12.7256C16.1909 12.7475 16.1866 12.7693 16.1825 12.7914C16.1681 12.8685 16.1568 12.9471 16.1481 13.0269C16.1457 13.0497 16.1436 13.0725 16.1417 13.0956C16.1308 13.2222 16.1275 13.3519 16.1316 13.4845C16.1282 13.7 16.1501 13.908 16.195 14.1062C16.1995 14.1267 16.2046 14.1471 16.2096 14.1675C16.2224 14.2182 16.2368 14.2684 16.2526 14.3176C16.2589 14.3373 16.2656 14.357 16.2723 14.3765C16.2791 14.396 16.2863 14.4154 16.2935 14.4346C16.3007 14.4539 16.3081 14.4731 16.3158 14.4921C16.3257 14.5163 16.3358 14.5401 16.3463 14.5639C16.3668 14.6103 16.3886 14.6559 16.4119 14.7008C16.8261 15.4984 17.6604 16.0286 18.6588 16.0401C18.6805 16.0404 18.7021 16.0404 18.7237 16.0401C18.7345 16.0401 18.7453 16.0399 18.7561 16.0397C18.8323 16.038 18.9089 16.0334 18.9865 16.0257C20.4572 15.8782 21.411 14.7767 21.3617 13.2198L21.3622 13.2205ZM19.8028 13.3752C19.7973 13.6805 19.7082 13.9837 19.5347 14.2112C19.4792 14.2727 19.424 14.3342 19.3562 14.3837C19.2719 14.4493 19.1804 14.4995 19.0855 14.5343C19.0807 14.5363 19.0754 14.5379 19.0706 14.5396C18.876 14.6076 18.6675 14.6127 18.4736 14.5591C18.4669 14.5574 18.4602 14.5555 18.4534 14.5533C18.4513 14.5528 18.4491 14.5521 18.447 14.5514C18.4347 14.5475 18.4224 14.5435 18.4102 14.5394C18.4044 14.5375 18.3989 14.5353 18.3934 14.5334C18.3879 14.5315 18.3821 14.5293 18.3766 14.5271C18.371 14.525 18.3655 14.5228 18.36 14.5206C18.1995 14.4551 18.0542 14.347 17.9413 14.1992C17.9302 14.1838 17.9194 14.1685 17.9088 14.1531C17.9035 14.1452 17.8985 14.1372 17.8934 14.1295C17.8889 14.1223 17.8843 14.1154 17.88 14.1079C17.7363 13.8756 17.6657 13.6092 17.6768 13.3377C17.6768 13.3029 17.6777 13.2685 17.6796 13.2349C17.6801 13.2251 17.6808 13.215 17.6816 13.2051C17.683 13.1854 17.6847 13.166 17.6868 13.147C17.7498 12.5644 18.1017 12.1695 18.6012 12.1077C18.6094 12.1068 18.6178 12.1058 18.6262 12.1048C18.6853 12.0988 18.746 12.0974 18.8087 12.101C19.098 12.107 19.3687 12.2547 19.541 12.4885C19.5737 12.5322 19.6034 12.5786 19.6301 12.6276C19.6404 12.6468 19.6505 12.666 19.6599 12.686C19.6661 12.6992 19.6724 12.7124 19.6782 12.7256C19.681 12.7323 19.6842 12.7393 19.687 12.746C19.7497 12.8952 19.7872 13.0598 19.799 13.2275C19.7995 13.2351 19.8 13.2428 19.8004 13.2503C19.8014 13.2657 19.8021 13.2808 19.8024 13.2962C19.8024 13.3039 19.8028 13.3113 19.8028 13.319C19.8031 13.3377 19.8031 13.3567 19.8028 13.3754V13.3752Z" fill="#141416"/>
<path id="Vector_4" d="M15.5904 12.2606C15.5904 11.3006 15.5964 10.3346 15.5904 9.37463C15.5904 8.88239 15.2766 8.57465 14.8089 8.58065C14.5124 8.58065 14.2811 8.7111 14.154 8.93284C14.1408 8.9559 14.1288 8.97992 14.1179 9.00467C14.0725 9.10845 14.0473 9.22881 14.0456 9.36214C14.0396 9.65138 14.0456 9.93438 14.0456 10.2236V15.1158C14.0456 15.1338 14.0461 15.1521 14.0471 15.1698C14.0661 15.505 14.2597 15.786 14.5196 15.8877C14.5324 15.8927 14.5453 15.8973 14.5585 15.9013C14.5681 15.9045 14.5775 15.9071 14.5871 15.9095C14.6609 15.928 14.7411 15.9343 14.8149 15.9343C15.1459 15.9249 15.4241 15.714 15.5365 15.4223C15.5375 15.4197 15.5385 15.4173 15.5394 15.4146C15.5735 15.3236 15.5916 15.2248 15.5901 15.122C15.5952 14.3273 15.5918 13.5324 15.5906 12.7374C15.5904 12.5787 15.5901 12.4196 15.5901 12.2606H15.5904Z" fill="#141416"/>
<path id="Vector_5" d="M12.4212 10.7835C12.1846 10.8296 12.0347 10.9894 11.8951 11.1664C11.8857 11.1782 11.8766 11.1902 11.8672 11.202C11.7985 11.1422 11.7294 11.0874 11.6597 11.0374C11.6477 11.0288 11.6357 11.0204 11.6236 11.0122C11.5422 10.956 11.4598 10.9065 11.3769 10.8635C11.363 10.8563 11.3493 10.8493 11.3354 10.8426C11.3284 10.8392 11.3214 10.8359 11.3145 10.8325C11.3075 10.8292 11.3005 10.826 11.2936 10.8227C11.2931 10.8227 11.2926 10.8222 11.2919 10.822C11.2784 10.8159 11.265 10.8099 11.2515 10.8039C11.251 10.8039 11.2503 10.8035 11.2498 10.8032C11.2405 10.7991 11.2311 10.7953 11.222 10.7912C11.21 10.7864 11.1982 10.7814 11.1862 10.7768C11.1843 10.7761 11.1826 10.7753 11.1809 10.7746C10.607 10.5514 10.0064 10.6322 9.4118 10.9863C9.24724 11.0826 9.09949 11.1888 8.96809 11.3039C8.96761 11.3043 8.96688 11.3048 8.96616 11.3055C8.29302 11.896 8.04846 12.7215 8.15633 13.663C8.27933 14.703 8.72857 15.5582 9.82404 15.9152C10.507 16.1367 11.1408 16.0567 11.7008 15.6014C11.8485 15.4844 11.8915 15.5092 11.9963 15.6384C12.1993 15.9029 12.5502 15.9954 12.8577 15.8784C12.932 15.8556 13.0004 15.8215 13.0617 15.7778C13.0629 15.777 13.0641 15.7761 13.0655 15.7751C13.2512 15.6418 13.3685 15.4227 13.3685 15.1829C13.3807 13.9522 13.387 12.7215 13.3685 11.4908C13.3625 10.9985 12.907 10.6848 12.421 10.783L12.4212 10.7835ZM11.5658 14.1927C11.5043 14.2727 11.4365 14.3404 11.3628 14.3957C11.1795 14.5312 10.9654 14.5963 10.7535 14.5953C10.4463 14.5944 10.144 14.4548 9.94729 14.1927C9.82501 14.0279 9.74597 13.8381 9.70969 13.6368C9.70609 13.6159 9.70273 13.595 9.69984 13.5738C9.69432 13.5323 9.69071 13.4902 9.68879 13.448C9.68831 13.3905 9.68999 13.3346 9.69384 13.2803C9.69552 13.2558 9.69768 13.2315 9.70008 13.2077C9.70032 13.2044 9.7008 13.2008 9.70128 13.1974C9.70225 13.1885 9.70321 13.1796 9.70441 13.1707C9.71017 13.1241 9.71762 13.0787 9.72627 13.0348C9.72843 13.0237 9.73083 13.0127 9.73324 13.0018C9.73564 12.9915 9.7378 12.9812 9.74044 12.9711C9.74309 12.9596 9.74597 12.9485 9.74909 12.9372C9.75197 12.9267 9.75486 12.9161 9.75774 12.9058C9.76086 12.8954 9.76375 12.8851 9.76711 12.8748C9.76951 12.8671 9.77191 12.8594 9.77456 12.8517C9.77552 12.8488 9.77648 12.8457 9.77744 12.8428C9.94416 12.3455 10.3336 12.0683 10.8338 12.1002C10.9229 12.1022 11.0103 12.1168 11.0937 12.1435C11.2806 12.2031 11.4468 12.322 11.566 12.4877C11.9105 12.9555 11.9105 13.7247 11.566 14.1922L11.5658 14.1927Z" fill="#141416"/>
</g>
</g>
</svg>
