<svg width="36" height="36" viewBox="0 0 36 36" fill="none" xmlns="http://www.w3.org/2000/svg">
<path d="M7.41744 6.80141L16.9809 10.7764L17.8035 17.4335L9.87949 14.14L1.95545 10.8464L7.41744 6.80141Z" fill="#00B58D"/>
<path d="M22.0112 3.31767L23.2774 13.4149L17.8009 17.4411L16.7518 9.07476L15.7027 0.708451L22.0112 3.31767Z" fill="#00B58D"/>
<path d="M33.2737 14.9772L24.9764 21.0995L18.6773 18.4685L25.5522 13.3957L32.4271 8.32295L33.2737 14.9772Z" fill="#00B58D"/>
<path d="M29.0669 29.0926L19.5034 25.1177L18.6808 18.4606L26.6049 21.7541L34.5289 25.0476L29.0669 29.0926Z" fill="#00B58D"/>
<path d="M13.1121 32.6823L11.8459 22.5851L17.3224 18.5589L18.3715 26.9252L19.4206 35.2915L13.1121 32.6823Z" fill="#00B58D"/>
<path d="M2.72627 22.0504L11.0236 15.9281L17.3228 18.5591L10.4478 23.6319L3.57286 28.7046L2.72627 22.0504Z" fill="#00B58D"/>
</svg>
