<svg width="196" height="41" viewBox="0 0 196 41" fill="none" xmlns="http://www.w3.org/2000/svg">
<path d="M65.6226 13.6131C61.3019 18.0675 54.5345 16.7589 52.2947 15.4356C55.1199 4.32069 66.5823 6.10023 71.9604 8.37936C70.4387 8.07513 69.9434 9.15869 65.6226 13.6131Z" fill="#B2DA14"/>
<path d="M39.1736 5.74957C43.0327 13.745 50.3216 15.484 53.4836 15.354C55.8724 2.97643 42.8619 0.305976 36.0581 0.517947C38.1852 1.05355 37.9017 3.11449 39.1736 5.74957Z" fill="#C7EB00"/>
<path d="M14.6696 40.3108C6.13457 40.3108 0 34.4392 0 26.346V0.902588H9.60193V13.7565C11.2556 12.8573 13.2293 12.2754 15.2031 12.2754C23.6848 12.2754 29.3392 17.8825 29.3392 26.346C29.3392 34.016 22.9913 40.3108 14.6696 40.3108ZM14.6696 31.3712C17.7102 31.3712 19.7373 29.0966 19.7373 26.2931C19.7373 23.5424 17.7102 21.215 14.6696 21.215C11.629 21.215 9.60193 23.5424 9.60193 26.2931C9.60193 29.0966 11.629 31.3712 14.6696 31.3712Z" fill="white"/>
<path d="M47.2032 40.3108C38.8816 40.3108 32.5336 33.9631 32.5336 26.2402C32.5336 18.5701 38.8816 12.2225 47.2032 12.2225C55.5249 12.2225 61.8729 18.5701 61.8729 26.2402C61.8729 33.9631 55.5249 40.3108 47.2032 40.3108ZM47.2032 31.3712C50.2439 31.3712 52.2709 29.0437 52.2709 26.2931C52.2709 23.4896 50.2439 21.1621 47.2032 21.1621C44.1626 21.1621 42.1356 23.4896 42.1356 26.2931C42.1356 29.0437 44.1626 31.3712 47.2032 31.3712Z" fill="white"/>
<path d="M80.6154 21.5324C77.0947 21.5324 75.7611 24.3359 75.7611 27.6684V39.5173H66.1591V26.5047C66.1591 18.7288 70.7467 12.2754 80.6154 12.2754C90.484 12.2754 95.0716 18.7288 95.0716 26.5047V39.5173H85.4697V27.6684C85.4697 24.3359 84.1361 21.5324 80.6154 21.5324Z" fill="white"/>
<path d="M115.054 40.3108C106.519 40.3108 100.385 34.4392 100.385 26.346V0.902588H109.987V13.7565C111.64 12.8573 113.614 12.2754 115.588 12.2754C124.07 12.2754 129.724 17.8825 129.724 26.346C129.724 34.016 123.376 40.3108 115.054 40.3108ZM115.054 31.3712C118.095 31.3712 120.122 29.0966 120.122 26.2931C120.122 23.5424 118.095 21.215 115.054 21.215C112.014 21.215 109.987 23.5424 109.987 26.2931C109.987 29.0966 112.014 31.3712 115.054 31.3712Z" fill="white"/>
<path d="M147.588 40.3108C139.266 40.3108 132.918 33.9631 132.918 26.2402C132.918 18.5701 139.266 12.2225 147.588 12.2225C155.91 12.2225 162.258 18.5701 162.258 26.2402C162.258 33.9631 155.91 40.3108 147.588 40.3108ZM147.588 31.3712C150.629 31.3712 152.656 29.0437 152.656 26.2931C152.656 23.4896 150.629 21.1621 147.588 21.1621C144.547 21.1621 142.52 23.4896 142.52 26.2931C142.52 29.0437 144.547 31.3712 147.588 31.3712Z" fill="white"/>
<path d="M181 21.5324C177.479 21.5324 176.146 24.3359 176.146 27.6684V39.5173H166.544V26.5047C166.544 18.7288 171.132 12.2754 181 12.2754C190.869 12.2754 195.456 18.7288 195.456 26.5047V39.5173H185.855V27.6684C185.855 24.3359 184.521 21.5324 181 21.5324Z" fill="white"/>
</svg>
