<svg width="157" height="32" viewBox="0 0 157 32" fill="none" xmlns="http://www.w3.org/2000/svg">
<path d="M52.4977 10.642C49.0411 14.2055 43.6273 13.1587 41.8355 12.1C44.0956 3.2082 53.2654 4.63183 57.5679 6.45511C56.3505 6.21173 55.9543 7.07857 52.4977 10.642Z" fill="#B2DA14"/>
<path d="M31.3398 4.35148C34.4271 10.7477 40.2581 12.1389 42.7878 12.035C44.6987 2.13298 34.2905 -0.00335973 28.8474 0.166215C30.5491 0.594693 30.3223 2.24343 31.3398 4.35148Z" fill="#C7EB00"/>
<path d="M11.7356 31.9999C4.90761 31.9999 0 27.3027 0 20.8282V0.473633H7.68147V10.7567C9.00439 10.0373 10.5834 9.57181 12.1623 9.57181C18.9476 9.57181 23.4712 14.0574 23.4712 20.8282C23.4712 26.9641 18.3929 31.9999 11.7356 31.9999ZM11.7356 24.8483C14.168 24.8483 15.7897 23.0286 15.7897 20.7858C15.7897 18.5853 14.168 16.7234 11.7356 16.7234C9.30312 16.7234 7.68147 18.5853 7.68147 20.7858C7.68147 23.0286 9.30312 24.8483 11.7356 24.8483Z" fill="#5A45FE"/>
<path d="M37.7622 31.9999C31.105 31.9999 26.0267 26.9218 26.0267 20.7435C26.0267 14.6075 31.105 9.52949 37.7622 9.52949C44.4195 9.52949 49.4978 14.6075 49.4978 20.7435C49.4978 26.9218 44.4195 31.9999 37.7622 31.9999ZM37.7622 24.8483C40.1947 24.8483 41.8163 22.9863 41.8163 20.7858C41.8163 18.543 40.1947 16.6811 37.7622 16.6811C35.3298 16.6811 33.7081 18.543 33.7081 20.7858C33.7081 22.9863 35.3298 24.8483 37.7622 24.8483Z" fill="#5A45FE"/>
<path d="M64.4917 16.9773C61.6752 16.9773 60.6083 19.2201 60.6083 21.8861V31.3651H52.9268V20.9551C52.9268 14.7345 56.5968 9.57181 64.4917 9.57181C72.3865 9.57181 76.0566 14.7345 76.0566 20.9551V31.3651H68.3751V21.8861C68.3751 19.2201 67.3082 16.9773 64.4917 16.9773Z" fill="#5A45FE"/>
<path d="M92.0426 31.9999C85.2147 31.9999 80.3071 27.3027 80.3071 20.8282V0.473633H87.9885V10.7567C89.3115 10.0373 90.8904 9.57181 92.4694 9.57181C99.2547 9.57181 103.778 14.0574 103.778 20.8282C103.778 26.9641 98.6999 31.9999 92.0426 31.9999ZM92.0426 24.8483C94.4751 24.8483 96.0968 23.0286 96.0968 20.7858C96.0968 18.5853 94.4751 16.7234 92.0426 16.7234C89.6102 16.7234 87.9885 18.5853 87.9885 20.7858C87.9885 23.0286 89.6102 24.8483 92.0426 24.8483Z" fill="#5A45FE"/>
<path d="M118.069 31.9999C111.412 31.9999 106.334 26.9218 106.334 20.7435C106.334 14.6075 111.412 9.52949 118.069 9.52949C124.727 9.52949 129.805 14.6075 129.805 20.7435C129.805 26.9218 124.727 31.9999 118.069 31.9999ZM118.069 24.8483C120.502 24.8483 122.123 22.9863 122.123 20.7858C122.123 18.543 120.502 16.6811 118.069 16.6811C115.637 16.6811 114.015 18.543 114.015 20.7858C114.015 22.9863 115.637 24.8483 118.069 24.8483Z" fill="#5A45FE"/>
<path d="M144.799 16.9773C141.982 16.9773 140.915 19.2201 140.915 21.8861V31.3651H133.234V20.9551C133.234 14.7345 136.904 9.57181 144.799 9.57181C152.694 9.57181 156.364 14.7345 156.364 20.9551V31.3651H148.682V21.8861C148.682 19.2201 147.615 16.9773 144.799 16.9773Z" fill="#5A45FE"/>
</svg>
