<svg width="134" height="36" viewBox="0 0 134 36" fill="none" xmlns="http://www.w3.org/2000/svg">
<path d="M54.2561 12.0688C54.2561 12.2175 54.1826 12.2919 54.0355 12.2919H46.2056C46.1468 12.2919 46.1174 12.3217 46.1174 12.3812V17.1789C46.1174 17.2384 46.1468 17.2682 46.2056 17.2682H51.5873C51.7343 17.2682 51.8079 17.3426 51.8079 17.4914V18.8972C51.8079 19.046 51.7343 19.1204 51.5873 19.1204H46.2056C46.1468 19.1204 46.1174 19.1501 46.1174 19.2096V24.119C46.1174 24.1785 46.1468 24.2082 46.2056 24.2082H54.0355C54.1826 24.2082 54.2561 24.2826 54.2561 24.4314V25.8372C54.2561 25.986 54.1826 26.0604 54.0355 26.0604H44.2206C44.0735 26.0604 44 25.986 44 25.8372V10.6629C44 10.5141 44.0735 10.4398 44.2206 10.4398H54.0355C54.1826 10.4398 54.2561 10.5141 54.2561 10.6629V12.0688Z" fill="black"/>
<path d="M56.1233 26.0604C56.0351 26.0604 55.9762 26.0381 55.9468 25.9934C55.9174 25.9339 55.9248 25.867 55.9689 25.7926L59.6302 20.4593C59.6596 20.4146 59.6596 20.37 59.6302 20.3254L55.9689 14.9697L55.9248 14.8582C55.9248 14.754 55.9909 14.702 56.1233 14.702H57.9098C58.0275 14.702 58.1157 14.7466 58.1745 14.8358L60.7551 18.6517C60.7698 18.6666 60.7918 18.6741 60.8212 18.6741C60.8506 18.6741 60.8727 18.6666 60.8874 18.6517L63.4459 14.8358C63.5047 14.7466 63.593 14.702 63.7106 14.702H65.6295C65.7177 14.702 65.7765 14.7317 65.8059 14.7912C65.8353 14.8358 65.828 14.8954 65.7839 14.9697L62.1225 20.3254C62.1078 20.37 62.1078 20.4146 62.1225 20.4593L65.7839 25.7926L65.828 25.9042C65.828 26.0083 65.7618 26.0604 65.6295 26.0604H63.8209C63.7032 26.0604 63.615 26.0158 63.5562 25.9265L60.9977 22.1106C60.983 22.0808 60.9609 22.066 60.9315 22.066C60.9021 22.066 60.8801 22.0808 60.8653 22.1106L58.2848 25.9265C58.226 26.0158 58.1377 26.0604 58.0201 26.0604H56.1233Z" fill="black"/>
<path d="M73.1511 26.2612C72.0924 26.2612 71.1514 26.053 70.3279 25.6364C69.5192 25.205 68.8869 24.6025 68.4311 23.8289C67.99 23.0404 67.7694 22.1404 67.7694 21.1287V15.3491C67.7694 14.3375 67.99 13.4523 68.4311 12.6936C68.8869 11.92 69.5192 11.3249 70.3279 10.9084C71.1514 10.4769 72.0924 10.2612 73.1511 10.2612C74.2098 10.2612 75.1435 10.4695 75.9523 10.8861C76.761 11.2877 77.3859 11.8605 77.827 12.6043C78.2829 13.3482 78.5108 14.211 78.5108 15.1929V15.2152C78.5108 15.2896 78.4887 15.3491 78.4446 15.3937C78.4005 15.4384 78.349 15.4607 78.2902 15.4607L76.6139 15.5499C76.4669 15.5499 76.3934 15.483 76.3934 15.3491V15.2822C76.3934 14.33 76.0993 13.5639 75.5111 12.9837C74.923 12.4035 74.1363 12.1134 73.1511 12.1134C72.166 12.1134 71.3719 12.4035 70.7691 12.9837C70.1809 13.5639 69.8868 14.33 69.8868 15.2822V21.218C69.8868 22.1701 70.1809 22.9363 70.7691 23.5165C71.3719 24.0967 72.166 24.3868 73.1511 24.3868C74.1363 24.3868 74.923 24.0967 75.5111 23.5165C76.0993 22.9363 76.3934 22.1701 76.3934 21.218V21.1734C76.3934 21.0395 76.4669 20.9725 76.6139 20.9725L78.2902 21.0618C78.4372 21.0618 78.5108 21.1362 78.5108 21.2849C78.5108 22.2668 78.2829 23.1371 77.827 23.8958C77.3859 24.6397 76.761 25.2199 75.9523 25.6364C75.1435 26.053 74.2098 26.2612 73.1511 26.2612Z" fill="black"/>
<path d="M85.2944 14.5234C86.1913 14.5234 86.9707 14.6871 87.6323 15.0144C88.3087 15.3268 88.8234 15.7731 89.1763 16.3533C89.5439 16.9186 89.7277 17.5657 89.7277 18.2947V25.8372C89.7277 25.986 89.6542 26.0604 89.5071 26.0604H87.8309C87.6838 26.0604 87.6103 25.986 87.6103 25.8372V25.0339C87.6103 24.9595 87.5735 24.9446 87.5 24.9893C87.1177 25.3909 86.6472 25.7034 86.0884 25.9265C85.5444 26.1348 84.9341 26.2389 84.2578 26.2389C83.1697 26.2389 82.2654 25.9637 81.5449 25.4133C80.8391 24.8479 80.4862 24 80.4862 22.8693C80.4862 21.7089 80.8832 20.8014 81.6772 20.1469C82.4859 19.4774 83.6108 19.1427 85.0518 19.1427H87.5221C87.5809 19.1427 87.6103 19.1129 87.6103 19.0534V18.4509C87.6103 17.7963 87.4191 17.2905 87.0368 16.9335C86.6692 16.5616 86.1031 16.3756 85.3385 16.3756C84.7209 16.3756 84.2136 16.502 83.8166 16.755C83.4343 16.993 83.1991 17.3203 83.1108 17.7368C83.0667 17.8856 82.9785 17.9525 82.8462 17.9377L81.0596 17.6922C80.9126 17.6624 80.8464 17.6029 80.8611 17.5137C80.9788 16.6359 81.4419 15.9219 82.2507 15.3714C83.0594 14.8061 84.074 14.5234 85.2944 14.5234ZM84.7209 24.4314C85.5003 24.4314 86.1766 24.2231 86.7501 23.8066C87.3236 23.39 87.6103 22.8619 87.6103 22.2222V20.9056C87.6103 20.8461 87.5809 20.8163 87.5221 20.8163H85.4488C84.5813 20.8163 83.8902 20.9874 83.3755 21.3296C82.8609 21.6717 82.6036 22.1478 82.6036 22.7577C82.6036 23.3082 82.7947 23.7247 83.177 24.0074C83.574 24.2901 84.0887 24.4314 84.7209 24.4314Z" fill="black"/>
<path d="M97.5047 14.5904C97.9752 14.5904 98.4016 14.6871 98.784 14.8805C98.8869 14.9251 98.9236 15.0144 98.8942 15.1483L98.5413 16.8219C98.5266 16.9558 98.4384 17.0004 98.2767 16.9558C98.0267 16.8517 97.7326 16.7996 97.3944 16.7996L97.0856 16.8219C96.3945 16.8517 95.8211 17.0971 95.3653 17.5583C94.9241 18.0046 94.7036 18.5922 94.7036 19.3212V25.8372C94.7036 25.986 94.6301 26.0604 94.483 26.0604H92.8067C92.6597 26.0604 92.5862 25.986 92.5862 25.8372V14.9251C92.5862 14.7763 92.6597 14.702 92.8067 14.702H94.483C94.6301 14.702 94.7036 14.7763 94.7036 14.9251V16.1078C94.7036 16.1524 94.7109 16.1822 94.7256 16.1971C94.755 16.1971 94.7771 16.1822 94.7918 16.1524C95.4535 15.1111 96.3578 14.5904 97.5047 14.5904Z" fill="black"/>
<path d="M109.836 17.6476C110.071 18.4063 110.189 19.3063 110.189 20.3477C110.189 21.4635 110.049 22.4156 109.77 23.204C109.446 24.171 108.932 24.9223 108.226 25.4579C107.535 25.9786 106.66 26.2389 105.601 26.2389C105.087 26.2389 104.609 26.1348 104.168 25.9265C103.727 25.7182 103.344 25.4281 103.021 25.0562C102.991 25.0265 102.962 25.019 102.933 25.0339C102.918 25.0488 102.911 25.0711 102.911 25.1008V25.8372C102.911 25.986 102.837 26.0604 102.69 26.0604H101.014C100.867 26.0604 100.793 25.986 100.793 25.8372V10.6629C100.793 10.5141 100.867 10.4398 101.014 10.4398H102.69C102.837 10.4398 102.911 10.5141 102.911 10.6629V15.6392C102.911 15.6689 102.918 15.6913 102.933 15.7061C102.962 15.721 102.991 15.7136 103.021 15.6838C103.344 15.3119 103.727 15.0292 104.168 14.8358C104.624 14.6276 105.101 14.5234 105.601 14.5234C106.704 14.5234 107.608 14.7987 108.314 15.3491C109.02 15.8995 109.527 16.6657 109.836 17.6476ZM107.498 23.1594C107.866 22.4602 108.05 21.5378 108.05 20.3923C108.05 19.1724 107.814 18.1906 107.344 17.4467C106.917 16.7326 106.263 16.3756 105.381 16.3756C104.557 16.3756 103.932 16.755 103.506 17.5137C103.124 18.198 102.933 19.1501 102.933 20.37C102.933 21.5899 103.109 22.5272 103.462 23.1817C103.903 23.9851 104.55 24.3868 105.403 24.3868C106.373 24.3868 107.072 23.9776 107.498 23.1594Z" fill="black"/>
<path d="M117.421 26.2389C116.333 26.2389 115.384 25.9637 114.575 25.4133C113.767 24.8479 113.201 24.0669 112.877 23.0702C112.612 22.2668 112.48 21.3593 112.48 20.3477C112.48 19.2914 112.605 18.3988 112.855 17.6699C113.179 16.688 113.745 15.9219 114.553 15.3714C115.362 14.8061 116.325 14.5234 117.443 14.5234C118.501 14.5234 119.42 14.8061 120.2 15.3714C120.994 15.9219 121.56 16.6806 121.898 17.6476C122.163 18.4063 122.295 19.2989 122.295 20.3254C122.295 21.3668 122.163 22.2817 121.898 23.0702C121.575 24.0669 121.016 24.8479 120.222 25.4133C119.428 25.9637 118.494 26.2389 117.421 26.2389ZM117.421 24.3868C118.009 24.3868 118.523 24.2231 118.965 23.8958C119.406 23.5537 119.722 23.0776 119.913 22.4676C120.075 21.9023 120.156 21.2031 120.156 20.37C120.156 19.5369 120.082 18.8451 119.935 18.2947C119.744 17.6848 119.428 17.2161 118.987 16.8888C118.546 16.5467 118.009 16.3756 117.377 16.3756C116.774 16.3756 116.252 16.5467 115.811 16.8888C115.369 17.2161 115.053 17.6848 114.862 18.2947C114.7 18.8154 114.62 19.5072 114.62 20.37C114.62 21.2329 114.7 21.9321 114.862 22.4676C115.039 23.0776 115.347 23.5537 115.789 23.8958C116.244 24.2231 116.788 24.3868 117.421 24.3868Z" fill="black"/>
<path d="M130.074 14.5457C131.28 14.5457 132.236 14.9028 132.941 15.6169C133.647 16.3161 134 17.2682 134 18.4732V25.8372C134 25.986 133.926 26.0604 133.779 26.0604H132.103C131.956 26.0604 131.883 25.986 131.883 25.8372V18.8972C131.883 18.1534 131.669 17.5509 131.243 17.0897C130.817 16.6285 130.25 16.3979 129.545 16.3979C128.854 16.3979 128.287 16.6285 127.846 17.0897C127.405 17.5509 127.185 18.1459 127.185 18.8749V25.8372C127.185 25.986 127.111 26.0604 126.964 26.0604H125.288C125.141 26.0604 125.067 25.986 125.067 25.8372V14.9251C125.067 14.7763 125.141 14.702 125.288 14.702H126.964C127.111 14.702 127.185 14.7763 127.185 14.9251V15.7285C127.185 15.7582 127.192 15.7805 127.207 15.7954C127.236 15.8103 127.258 15.8028 127.273 15.7731C127.905 14.9549 128.839 14.5457 130.074 14.5457Z" fill="black"/>
<path d="M7.41744 6.80141L16.9809 10.7764L17.8035 17.4335L9.87949 14.14L1.95545 10.8464L7.41744 6.80141Z" fill="#00B58D"/>
<path d="M22.0112 3.31767L23.2774 13.4149L17.8009 17.4411L16.7518 9.07476L15.7027 0.708451L22.0112 3.31767Z" fill="#00B58D"/>
<path d="M33.2737 14.9772L24.9764 21.0995L18.6773 18.4685L25.5522 13.3957L32.4271 8.32295L33.2737 14.9772Z" fill="#00B58D"/>
<path d="M29.0669 29.0926L19.5034 25.1177L18.6808 18.4606L26.6049 21.7541L34.5289 25.0476L29.0669 29.0926Z" fill="#00B58D"/>
<path d="M13.1121 32.6823L11.8459 22.5851L17.3224 18.5589L18.3715 26.9252L19.4206 35.2915L13.1121 32.6823Z" fill="#00B58D"/>
<path d="M2.72627 22.0504L11.0236 15.9281L17.3228 18.5591L10.4478 23.6319L3.57286 28.7046L2.72627 22.0504Z" fill="#00B58D"/>
</svg>
